<mxfile host="app.diagrams.net" modified="2020-08-01T01:27:07.813Z" agent="5.0 (Macintosh; Intel Mac OS X 10_15_5) AppleWebKit/537.36 (KHTML, like Gecko) Chrome/84.0.4147.89 Safari/537.36" etag="n_FUzOKXqKcGv3VMW3wg" version="13.5.5" type="github">
  <diagram id="ZjCL1IxsfKy74yW9H1NM" name="Page-1">
    <mxGraphModel dx="746" dy="1020" grid="1" gridSize="10" guides="1" tooltips="1" connect="1" arrows="1" fold="1" page="1" pageScale="1" pageWidth="827" pageHeight="1169" math="0" shadow="0">
      <root>
        <mxCell id="0" />
        <mxCell id="1" parent="0" />
        <mxCell id="sJbd9mL3_aO5Ch2zx1B1-1" value="" style="shape=table;html=1;whiteSpace=wrap;startSize=0;container=1;collapsible=0;childLayout=tableLayout;" vertex="1" parent="1">
          <mxGeometry x="100" y="250" width="270" height="200" as="geometry" />
        </mxCell>
        <mxCell id="sJbd9mL3_aO5Ch2zx1B1-2" value="" style="shape=partialRectangle;html=1;whiteSpace=wrap;collapsible=0;dropTarget=0;pointerEvents=0;fillColor=none;top=0;left=0;bottom=0;right=0;points=[[0,0.5],[1,0.5]];portConstraint=eastwest;" vertex="1" parent="sJbd9mL3_aO5Ch2zx1B1-1">
          <mxGeometry width="270" height="40" as="geometry" />
        </mxCell>
        <mxCell id="sJbd9mL3_aO5Ch2zx1B1-3" value="Process" style="shape=partialRectangle;html=1;whiteSpace=wrap;connectable=0;overflow=hidden;fillColor=#d5e8d4;top=0;left=0;bottom=0;right=0;strokeColor=#82b366;" vertex="1" parent="sJbd9mL3_aO5Ch2zx1B1-2">
          <mxGeometry width="180" height="40" as="geometry" />
        </mxCell>
        <mxCell id="sJbd9mL3_aO5Ch2zx1B1-4" value="Burst time" style="shape=partialRectangle;html=1;whiteSpace=wrap;connectable=0;overflow=hidden;fillColor=#d5e8d4;top=0;left=0;bottom=0;right=0;strokeColor=#82b366;" vertex="1" parent="sJbd9mL3_aO5Ch2zx1B1-2">
          <mxGeometry x="180" width="90" height="40" as="geometry" />
        </mxCell>
        <mxCell id="sJbd9mL3_aO5Ch2zx1B1-5" value="" style="shape=partialRectangle;html=1;whiteSpace=wrap;collapsible=0;dropTarget=0;pointerEvents=0;fillColor=none;top=0;left=0;bottom=0;right=0;points=[[0,0.5],[1,0.5]];portConstraint=eastwest;" vertex="1" parent="sJbd9mL3_aO5Ch2zx1B1-1">
          <mxGeometry y="40" width="270" height="40" as="geometry" />
        </mxCell>
        <mxCell id="sJbd9mL3_aO5Ch2zx1B1-6" value="A" style="shape=partialRectangle;html=1;whiteSpace=wrap;connectable=0;overflow=hidden;fillColor=#fff2cc;top=0;left=0;bottom=0;right=0;strokeColor=#d6b656;" vertex="1" parent="sJbd9mL3_aO5Ch2zx1B1-5">
          <mxGeometry width="180" height="40" as="geometry" />
        </mxCell>
        <mxCell id="sJbd9mL3_aO5Ch2zx1B1-7" value="8ms" style="shape=partialRectangle;html=1;whiteSpace=wrap;connectable=0;overflow=hidden;fillColor=#fff2cc;top=0;left=0;bottom=0;right=0;strokeColor=#d6b656;" vertex="1" parent="sJbd9mL3_aO5Ch2zx1B1-5">
          <mxGeometry x="180" width="90" height="40" as="geometry" />
        </mxCell>
        <mxCell id="sJbd9mL3_aO5Ch2zx1B1-8" value="" style="shape=partialRectangle;html=1;whiteSpace=wrap;collapsible=0;dropTarget=0;pointerEvents=0;fillColor=none;top=0;left=0;bottom=0;right=0;points=[[0,0.5],[1,0.5]];portConstraint=eastwest;" vertex="1" parent="sJbd9mL3_aO5Ch2zx1B1-1">
          <mxGeometry y="80" width="270" height="40" as="geometry" />
        </mxCell>
        <mxCell id="sJbd9mL3_aO5Ch2zx1B1-9" value="B" style="shape=partialRectangle;html=1;whiteSpace=wrap;connectable=0;overflow=hidden;fillColor=#f8cecc;top=0;left=0;bottom=0;right=0;strokeColor=#b85450;" vertex="1" parent="sJbd9mL3_aO5Ch2zx1B1-8">
          <mxGeometry width="180" height="40" as="geometry" />
        </mxCell>
        <mxCell id="sJbd9mL3_aO5Ch2zx1B1-10" value="4ms" style="shape=partialRectangle;html=1;whiteSpace=wrap;connectable=0;overflow=hidden;fillColor=#f8cecc;top=0;left=0;bottom=0;right=0;strokeColor=#b85450;" vertex="1" parent="sJbd9mL3_aO5Ch2zx1B1-8">
          <mxGeometry x="180" width="90" height="40" as="geometry" />
        </mxCell>
        <mxCell id="sJbd9mL3_aO5Ch2zx1B1-11" value="" style="shape=partialRectangle;html=1;whiteSpace=wrap;collapsible=0;dropTarget=0;pointerEvents=0;fillColor=none;top=0;left=0;bottom=0;right=0;points=[[0,0.5],[1,0.5]];portConstraint=eastwest;" vertex="1" parent="sJbd9mL3_aO5Ch2zx1B1-1">
          <mxGeometry y="120" width="270" height="40" as="geometry" />
        </mxCell>
        <mxCell id="sJbd9mL3_aO5Ch2zx1B1-12" value="C" style="shape=partialRectangle;html=1;whiteSpace=wrap;connectable=0;overflow=hidden;fillColor=#e1d5e7;top=0;left=0;bottom=0;right=0;strokeColor=#9673a6;" vertex="1" parent="sJbd9mL3_aO5Ch2zx1B1-11">
          <mxGeometry width="180" height="40" as="geometry" />
        </mxCell>
        <mxCell id="sJbd9mL3_aO5Ch2zx1B1-13" value="16ms" style="shape=partialRectangle;html=1;whiteSpace=wrap;connectable=0;overflow=hidden;fillColor=#e1d5e7;top=0;left=0;bottom=0;right=0;strokeColor=#9673a6;" vertex="1" parent="sJbd9mL3_aO5Ch2zx1B1-11">
          <mxGeometry x="180" width="90" height="40" as="geometry" />
        </mxCell>
        <mxCell id="sJbd9mL3_aO5Ch2zx1B1-14" value="" style="shape=partialRectangle;html=1;whiteSpace=wrap;collapsible=0;dropTarget=0;pointerEvents=0;fillColor=none;top=0;left=0;bottom=0;right=0;points=[[0,0.5],[1,0.5]];portConstraint=eastwest;" vertex="1" parent="sJbd9mL3_aO5Ch2zx1B1-1">
          <mxGeometry y="160" width="270" height="40" as="geometry" />
        </mxCell>
        <mxCell id="sJbd9mL3_aO5Ch2zx1B1-15" value="D" style="shape=partialRectangle;html=1;whiteSpace=wrap;connectable=0;overflow=hidden;fillColor=#dae8fc;top=0;left=0;bottom=0;right=0;strokeColor=#6c8ebf;" vertex="1" parent="sJbd9mL3_aO5Ch2zx1B1-14">
          <mxGeometry width="180" height="40" as="geometry" />
        </mxCell>
        <mxCell id="sJbd9mL3_aO5Ch2zx1B1-16" value="4ms" style="shape=partialRectangle;html=1;whiteSpace=wrap;connectable=0;overflow=hidden;fillColor=#dae8fc;top=0;left=0;bottom=0;right=0;strokeColor=#6c8ebf;" vertex="1" parent="sJbd9mL3_aO5Ch2zx1B1-14">
          <mxGeometry x="180" width="90" height="40" as="geometry" />
        </mxCell>
        <mxCell id="sJbd9mL3_aO5Ch2zx1B1-17" value="" style="shape=table;html=1;whiteSpace=wrap;startSize=0;container=1;collapsible=0;childLayout=tableLayout;" vertex="1" parent="1">
          <mxGeometry x="100" y="485" width="600" height="200" as="geometry" />
        </mxCell>
        <mxCell id="sJbd9mL3_aO5Ch2zx1B1-18" value="" style="shape=partialRectangle;html=1;whiteSpace=wrap;collapsible=0;dropTarget=0;pointerEvents=0;fillColor=none;top=0;left=0;bottom=0;right=0;points=[[0,0.5],[1,0.5]];portConstraint=eastwest;" vertex="1" parent="sJbd9mL3_aO5Ch2zx1B1-17">
          <mxGeometry width="600" height="40" as="geometry" />
        </mxCell>
        <mxCell id="sJbd9mL3_aO5Ch2zx1B1-19" value="" style="shape=partialRectangle;html=1;whiteSpace=wrap;connectable=0;overflow=hidden;fillColor=none;top=0;left=0;bottom=0;right=0;" vertex="1" parent="sJbd9mL3_aO5Ch2zx1B1-18">
          <mxGeometry width="60" height="40" as="geometry" />
        </mxCell>
        <mxCell id="sJbd9mL3_aO5Ch2zx1B1-20" value="" style="shape=partialRectangle;html=1;whiteSpace=wrap;connectable=0;overflow=hidden;fillColor=none;top=0;left=0;bottom=0;right=0;" vertex="1" parent="sJbd9mL3_aO5Ch2zx1B1-18">
          <mxGeometry x="60" width="60" height="40" as="geometry" />
        </mxCell>
        <mxCell id="sJbd9mL3_aO5Ch2zx1B1-21" value="" style="shape=partialRectangle;html=1;whiteSpace=wrap;connectable=0;overflow=hidden;fillColor=none;top=0;left=0;bottom=0;right=0;" vertex="1" parent="sJbd9mL3_aO5Ch2zx1B1-18">
          <mxGeometry x="120" width="60" height="40" as="geometry" />
        </mxCell>
        <mxCell id="sJbd9mL3_aO5Ch2zx1B1-22" value="" style="shape=partialRectangle;html=1;whiteSpace=wrap;connectable=0;overflow=hidden;fillColor=none;top=0;left=0;bottom=0;right=0;" vertex="1" parent="sJbd9mL3_aO5Ch2zx1B1-18">
          <mxGeometry x="180" width="60" height="40" as="geometry" />
        </mxCell>
        <mxCell id="sJbd9mL3_aO5Ch2zx1B1-23" value="" style="shape=partialRectangle;html=1;whiteSpace=wrap;connectable=0;overflow=hidden;fillColor=none;top=0;left=0;bottom=0;right=0;" vertex="1" parent="sJbd9mL3_aO5Ch2zx1B1-18">
          <mxGeometry x="240" width="60" height="40" as="geometry" />
        </mxCell>
        <mxCell id="sJbd9mL3_aO5Ch2zx1B1-24" value="" style="shape=partialRectangle;html=1;whiteSpace=wrap;connectable=0;overflow=hidden;fillColor=none;top=0;left=0;bottom=0;right=0;" vertex="1" parent="sJbd9mL3_aO5Ch2zx1B1-18">
          <mxGeometry x="300" width="60" height="40" as="geometry" />
        </mxCell>
        <mxCell id="sJbd9mL3_aO5Ch2zx1B1-25" value="" style="shape=partialRectangle;html=1;whiteSpace=wrap;connectable=0;overflow=hidden;fillColor=none;top=0;left=0;bottom=0;right=0;" vertex="1" parent="sJbd9mL3_aO5Ch2zx1B1-18">
          <mxGeometry x="360" width="60" height="40" as="geometry" />
        </mxCell>
        <mxCell id="sJbd9mL3_aO5Ch2zx1B1-26" value="" style="shape=partialRectangle;html=1;whiteSpace=wrap;connectable=0;overflow=hidden;fillColor=none;top=0;left=0;bottom=0;right=0;" vertex="1" parent="sJbd9mL3_aO5Ch2zx1B1-18">
          <mxGeometry x="420" width="60" height="40" as="geometry" />
        </mxCell>
        <mxCell id="sJbd9mL3_aO5Ch2zx1B1-27" value="" style="shape=partialRectangle;html=1;whiteSpace=wrap;connectable=0;overflow=hidden;fillColor=none;top=0;left=0;bottom=0;right=0;" vertex="1" parent="sJbd9mL3_aO5Ch2zx1B1-18">
          <mxGeometry x="480" width="60" height="40" as="geometry" />
        </mxCell>
        <mxCell id="sJbd9mL3_aO5Ch2zx1B1-28" value="" style="shape=partialRectangle;html=1;whiteSpace=wrap;connectable=0;overflow=hidden;fillColor=none;top=0;left=0;bottom=0;right=0;" vertex="1" parent="sJbd9mL3_aO5Ch2zx1B1-18">
          <mxGeometry x="540" width="60" height="40" as="geometry" />
        </mxCell>
        <mxCell id="sJbd9mL3_aO5Ch2zx1B1-29" value="" style="shape=partialRectangle;html=1;whiteSpace=wrap;collapsible=0;dropTarget=0;pointerEvents=0;fillColor=none;top=0;left=0;bottom=0;right=0;points=[[0,0.5],[1,0.5]];portConstraint=eastwest;" vertex="1" parent="sJbd9mL3_aO5Ch2zx1B1-17">
          <mxGeometry y="40" width="600" height="40" as="geometry" />
        </mxCell>
        <mxCell id="sJbd9mL3_aO5Ch2zx1B1-30" value="A" style="shape=partialRectangle;html=1;whiteSpace=wrap;connectable=0;overflow=hidden;fillColor=#bac8d3;top=0;left=0;bottom=0;right=0;strokeColor=#23445d;" vertex="1" parent="sJbd9mL3_aO5Ch2zx1B1-29">
          <mxGeometry width="60" height="40" as="geometry" />
        </mxCell>
        <mxCell id="sJbd9mL3_aO5Ch2zx1B1-31" value="1" style="shape=partialRectangle;html=1;whiteSpace=wrap;connectable=0;overflow=hidden;fillColor=#bac8d3;top=0;left=0;bottom=0;right=0;strokeColor=#23445d;" vertex="1" parent="sJbd9mL3_aO5Ch2zx1B1-29">
          <mxGeometry x="60" width="60" height="40" as="geometry" />
        </mxCell>
        <mxCell id="sJbd9mL3_aO5Ch2zx1B1-32" value="2" style="shape=partialRectangle;html=1;whiteSpace=wrap;connectable=0;overflow=hidden;fillColor=#bac8d3;top=0;left=0;bottom=0;right=0;strokeColor=#23445d;" vertex="1" parent="sJbd9mL3_aO5Ch2zx1B1-29">
          <mxGeometry x="120" width="60" height="40" as="geometry" />
        </mxCell>
        <mxCell id="sJbd9mL3_aO5Ch2zx1B1-33" value="3" style="shape=partialRectangle;html=1;whiteSpace=wrap;connectable=0;overflow=hidden;fillColor=#bac8d3;top=0;left=0;bottom=0;right=0;strokeColor=#23445d;" vertex="1" parent="sJbd9mL3_aO5Ch2zx1B1-29">
          <mxGeometry x="180" width="60" height="40" as="geometry" />
        </mxCell>
        <mxCell id="sJbd9mL3_aO5Ch2zx1B1-34" value="4" style="shape=partialRectangle;html=1;whiteSpace=wrap;connectable=0;overflow=hidden;fillColor=#bac8d3;top=0;left=0;bottom=0;right=0;strokeColor=#23445d;" vertex="1" parent="sJbd9mL3_aO5Ch2zx1B1-29">
          <mxGeometry x="240" width="60" height="40" as="geometry" />
        </mxCell>
        <mxCell id="sJbd9mL3_aO5Ch2zx1B1-35" value="6" style="shape=partialRectangle;html=1;whiteSpace=wrap;connectable=0;overflow=hidden;fillColor=#bac8d3;top=0;left=0;bottom=0;right=0;strokeColor=#23445d;" vertex="1" parent="sJbd9mL3_aO5Ch2zx1B1-29">
          <mxGeometry x="300" width="60" height="40" as="geometry" />
        </mxCell>
        <mxCell id="sJbd9mL3_aO5Ch2zx1B1-36" value="8" style="shape=partialRectangle;html=1;whiteSpace=wrap;connectable=0;overflow=hidden;fillColor=#bac8d3;top=0;left=0;bottom=0;right=0;strokeColor=#23445d;" vertex="1" parent="sJbd9mL3_aO5Ch2zx1B1-29">
          <mxGeometry x="360" width="60" height="40" as="geometry" />
        </mxCell>
        <mxCell id="sJbd9mL3_aO5Ch2zx1B1-37" value="" style="shape=partialRectangle;html=1;whiteSpace=wrap;connectable=0;overflow=hidden;fillColor=#bac8d3;top=0;left=0;bottom=0;right=0;strokeColor=#23445d;" vertex="1" parent="sJbd9mL3_aO5Ch2zx1B1-29">
          <mxGeometry x="420" width="60" height="40" as="geometry" />
        </mxCell>
        <mxCell id="sJbd9mL3_aO5Ch2zx1B1-38" value="" style="shape=partialRectangle;html=1;whiteSpace=wrap;connectable=0;overflow=hidden;fillColor=#bac8d3;top=0;left=0;bottom=0;right=0;strokeColor=#23445d;" vertex="1" parent="sJbd9mL3_aO5Ch2zx1B1-29">
          <mxGeometry x="480" width="60" height="40" as="geometry" />
        </mxCell>
        <mxCell id="sJbd9mL3_aO5Ch2zx1B1-39" value="" style="shape=partialRectangle;html=1;whiteSpace=wrap;connectable=0;overflow=hidden;fillColor=#bac8d3;top=0;left=0;bottom=0;right=0;strokeColor=#23445d;" vertex="1" parent="sJbd9mL3_aO5Ch2zx1B1-29">
          <mxGeometry x="540" width="60" height="40" as="geometry" />
        </mxCell>
        <mxCell id="sJbd9mL3_aO5Ch2zx1B1-40" value="" style="shape=partialRectangle;html=1;whiteSpace=wrap;collapsible=0;dropTarget=0;pointerEvents=0;fillColor=none;top=0;left=0;bottom=0;right=0;points=[[0,0.5],[1,0.5]];portConstraint=eastwest;" vertex="1" parent="sJbd9mL3_aO5Ch2zx1B1-17">
          <mxGeometry y="80" width="600" height="40" as="geometry" />
        </mxCell>
        <mxCell id="sJbd9mL3_aO5Ch2zx1B1-41" value="B" style="shape=partialRectangle;html=1;whiteSpace=wrap;connectable=0;overflow=hidden;fillColor=none;top=0;left=0;bottom=0;right=0;" vertex="1" parent="sJbd9mL3_aO5Ch2zx1B1-40">
          <mxGeometry width="60" height="40" as="geometry" />
        </mxCell>
        <mxCell id="sJbd9mL3_aO5Ch2zx1B1-42" value="1" style="shape=partialRectangle;html=1;whiteSpace=wrap;connectable=0;overflow=hidden;fillColor=none;top=0;left=0;bottom=0;right=0;" vertex="1" parent="sJbd9mL3_aO5Ch2zx1B1-40">
          <mxGeometry x="60" width="60" height="40" as="geometry" />
        </mxCell>
        <mxCell id="sJbd9mL3_aO5Ch2zx1B1-43" value="2" style="shape=partialRectangle;html=1;whiteSpace=wrap;connectable=0;overflow=hidden;fillColor=none;top=0;left=0;bottom=0;right=0;" vertex="1" parent="sJbd9mL3_aO5Ch2zx1B1-40">
          <mxGeometry x="120" width="60" height="40" as="geometry" />
        </mxCell>
        <mxCell id="sJbd9mL3_aO5Ch2zx1B1-44" value="3" style="shape=partialRectangle;html=1;whiteSpace=wrap;connectable=0;overflow=hidden;fillColor=none;top=0;left=0;bottom=0;right=0;" vertex="1" parent="sJbd9mL3_aO5Ch2zx1B1-40">
          <mxGeometry x="180" width="60" height="40" as="geometry" />
        </mxCell>
        <mxCell id="sJbd9mL3_aO5Ch2zx1B1-45" value="4" style="shape=partialRectangle;html=1;whiteSpace=wrap;connectable=0;overflow=hidden;fillColor=none;top=0;left=0;bottom=0;right=0;" vertex="1" parent="sJbd9mL3_aO5Ch2zx1B1-40">
          <mxGeometry x="240" width="60" height="40" as="geometry" />
        </mxCell>
        <mxCell id="sJbd9mL3_aO5Ch2zx1B1-46" value="" style="shape=partialRectangle;html=1;whiteSpace=wrap;connectable=0;overflow=hidden;fillColor=none;top=0;left=0;bottom=0;right=0;" vertex="1" parent="sJbd9mL3_aO5Ch2zx1B1-40">
          <mxGeometry x="300" width="60" height="40" as="geometry" />
        </mxCell>
        <mxCell id="sJbd9mL3_aO5Ch2zx1B1-47" value="" style="shape=partialRectangle;html=1;whiteSpace=wrap;connectable=0;overflow=hidden;fillColor=none;top=0;left=0;bottom=0;right=0;" vertex="1" parent="sJbd9mL3_aO5Ch2zx1B1-40">
          <mxGeometry x="360" width="60" height="40" as="geometry" />
        </mxCell>
        <mxCell id="sJbd9mL3_aO5Ch2zx1B1-48" value="" style="shape=partialRectangle;html=1;whiteSpace=wrap;connectable=0;overflow=hidden;fillColor=none;top=0;left=0;bottom=0;right=0;" vertex="1" parent="sJbd9mL3_aO5Ch2zx1B1-40">
          <mxGeometry x="420" width="60" height="40" as="geometry" />
        </mxCell>
        <mxCell id="sJbd9mL3_aO5Ch2zx1B1-49" value="" style="shape=partialRectangle;html=1;whiteSpace=wrap;connectable=0;overflow=hidden;fillColor=none;top=0;left=0;bottom=0;right=0;" vertex="1" parent="sJbd9mL3_aO5Ch2zx1B1-40">
          <mxGeometry x="480" width="60" height="40" as="geometry" />
        </mxCell>
        <mxCell id="sJbd9mL3_aO5Ch2zx1B1-50" value="" style="shape=partialRectangle;html=1;whiteSpace=wrap;connectable=0;overflow=hidden;fillColor=none;top=0;left=0;bottom=0;right=0;" vertex="1" parent="sJbd9mL3_aO5Ch2zx1B1-40">
          <mxGeometry x="540" width="60" height="40" as="geometry" />
        </mxCell>
        <mxCell id="sJbd9mL3_aO5Ch2zx1B1-51" value="" style="shape=partialRectangle;html=1;whiteSpace=wrap;collapsible=0;dropTarget=0;pointerEvents=0;fillColor=none;top=0;left=0;bottom=0;right=0;points=[[0,0.5],[1,0.5]];portConstraint=eastwest;" vertex="1" parent="sJbd9mL3_aO5Ch2zx1B1-17">
          <mxGeometry y="120" width="600" height="40" as="geometry" />
        </mxCell>
        <mxCell id="sJbd9mL3_aO5Ch2zx1B1-52" value="C" style="shape=partialRectangle;html=1;whiteSpace=wrap;connectable=0;overflow=hidden;fillColor=#bac8d3;top=0;left=0;bottom=0;right=0;strokeColor=#23445d;" vertex="1" parent="sJbd9mL3_aO5Ch2zx1B1-51">
          <mxGeometry width="60" height="40" as="geometry" />
        </mxCell>
        <mxCell id="sJbd9mL3_aO5Ch2zx1B1-53" value="1" style="shape=partialRectangle;html=1;whiteSpace=wrap;connectable=0;overflow=hidden;fillColor=#bac8d3;top=0;left=0;bottom=0;right=0;strokeColor=#23445d;" vertex="1" parent="sJbd9mL3_aO5Ch2zx1B1-51">
          <mxGeometry x="60" width="60" height="40" as="geometry" />
        </mxCell>
        <mxCell id="sJbd9mL3_aO5Ch2zx1B1-54" value="2" style="shape=partialRectangle;html=1;whiteSpace=wrap;connectable=0;overflow=hidden;fillColor=#bac8d3;top=0;left=0;bottom=0;right=0;strokeColor=#23445d;" vertex="1" parent="sJbd9mL3_aO5Ch2zx1B1-51">
          <mxGeometry x="120" width="60" height="40" as="geometry" />
        </mxCell>
        <mxCell id="sJbd9mL3_aO5Ch2zx1B1-55" value="3" style="shape=partialRectangle;html=1;whiteSpace=wrap;connectable=0;overflow=hidden;fillColor=#bac8d3;top=0;left=0;bottom=0;right=0;strokeColor=#23445d;" vertex="1" parent="sJbd9mL3_aO5Ch2zx1B1-51">
          <mxGeometry x="180" width="60" height="40" as="geometry" />
        </mxCell>
        <mxCell id="sJbd9mL3_aO5Ch2zx1B1-56" value="4" style="shape=partialRectangle;html=1;whiteSpace=wrap;connectable=0;overflow=hidden;fillColor=#bac8d3;top=0;left=0;bottom=0;right=0;strokeColor=#23445d;" vertex="1" parent="sJbd9mL3_aO5Ch2zx1B1-51">
          <mxGeometry x="240" width="60" height="40" as="geometry" />
        </mxCell>
        <mxCell id="sJbd9mL3_aO5Ch2zx1B1-57" value="6" style="shape=partialRectangle;html=1;whiteSpace=wrap;connectable=0;overflow=hidden;fillColor=#bac8d3;top=0;left=0;bottom=0;right=0;strokeColor=#23445d;" vertex="1" parent="sJbd9mL3_aO5Ch2zx1B1-51">
          <mxGeometry x="300" width="60" height="40" as="geometry" />
        </mxCell>
        <mxCell id="sJbd9mL3_aO5Ch2zx1B1-58" value="8" style="shape=partialRectangle;html=1;whiteSpace=wrap;connectable=0;overflow=hidden;fillColor=#bac8d3;top=0;left=0;bottom=0;right=0;strokeColor=#23445d;" vertex="1" parent="sJbd9mL3_aO5Ch2zx1B1-51">
          <mxGeometry x="360" width="60" height="40" as="geometry" />
        </mxCell>
        <mxCell id="sJbd9mL3_aO5Ch2zx1B1-59" value="12" style="shape=partialRectangle;html=1;whiteSpace=wrap;connectable=0;overflow=hidden;fillColor=#bac8d3;top=0;left=0;bottom=0;right=0;strokeColor=#23445d;" vertex="1" parent="sJbd9mL3_aO5Ch2zx1B1-51">
          <mxGeometry x="420" width="60" height="40" as="geometry" />
        </mxCell>
        <mxCell id="sJbd9mL3_aO5Ch2zx1B1-60" value="16" style="shape=partialRectangle;html=1;whiteSpace=wrap;connectable=0;overflow=hidden;fillColor=#bac8d3;top=0;left=0;bottom=0;right=0;strokeColor=#23445d;" vertex="1" parent="sJbd9mL3_aO5Ch2zx1B1-51">
          <mxGeometry x="480" width="60" height="40" as="geometry" />
        </mxCell>
        <mxCell id="sJbd9mL3_aO5Ch2zx1B1-61" value="" style="shape=partialRectangle;html=1;whiteSpace=wrap;connectable=0;overflow=hidden;fillColor=#bac8d3;top=0;left=0;bottom=0;right=0;strokeColor=#23445d;" vertex="1" parent="sJbd9mL3_aO5Ch2zx1B1-51">
          <mxGeometry x="540" width="60" height="40" as="geometry" />
        </mxCell>
        <mxCell id="sJbd9mL3_aO5Ch2zx1B1-62" value="" style="shape=partialRectangle;html=1;whiteSpace=wrap;collapsible=0;dropTarget=0;pointerEvents=0;fillColor=none;top=0;left=0;bottom=0;right=0;points=[[0,0.5],[1,0.5]];portConstraint=eastwest;" vertex="1" parent="sJbd9mL3_aO5Ch2zx1B1-17">
          <mxGeometry y="160" width="600" height="40" as="geometry" />
        </mxCell>
        <mxCell id="sJbd9mL3_aO5Ch2zx1B1-63" value="D" style="shape=partialRectangle;html=1;whiteSpace=wrap;connectable=0;overflow=hidden;fillColor=none;top=0;left=0;bottom=0;right=0;" vertex="1" parent="sJbd9mL3_aO5Ch2zx1B1-62">
          <mxGeometry width="60" height="40" as="geometry" />
        </mxCell>
        <mxCell id="sJbd9mL3_aO5Ch2zx1B1-64" value="1" style="shape=partialRectangle;html=1;whiteSpace=wrap;connectable=0;overflow=hidden;fillColor=none;top=0;left=0;bottom=0;right=0;" vertex="1" parent="sJbd9mL3_aO5Ch2zx1B1-62">
          <mxGeometry x="60" width="60" height="40" as="geometry" />
        </mxCell>
        <mxCell id="sJbd9mL3_aO5Ch2zx1B1-65" value="2" style="shape=partialRectangle;html=1;whiteSpace=wrap;connectable=0;overflow=hidden;fillColor=none;top=0;left=0;bottom=0;right=0;" vertex="1" parent="sJbd9mL3_aO5Ch2zx1B1-62">
          <mxGeometry x="120" width="60" height="40" as="geometry" />
        </mxCell>
        <mxCell id="sJbd9mL3_aO5Ch2zx1B1-66" value="3" style="shape=partialRectangle;html=1;whiteSpace=wrap;connectable=0;overflow=hidden;fillColor=none;top=0;left=0;bottom=0;right=0;" vertex="1" parent="sJbd9mL3_aO5Ch2zx1B1-62">
          <mxGeometry x="180" width="60" height="40" as="geometry" />
        </mxCell>
        <mxCell id="sJbd9mL3_aO5Ch2zx1B1-67" value="4" style="shape=partialRectangle;html=1;whiteSpace=wrap;connectable=0;overflow=hidden;fillColor=none;top=0;left=0;bottom=0;right=0;" vertex="1" parent="sJbd9mL3_aO5Ch2zx1B1-62">
          <mxGeometry x="240" width="60" height="40" as="geometry" />
        </mxCell>
        <mxCell id="sJbd9mL3_aO5Ch2zx1B1-68" value="" style="shape=partialRectangle;html=1;whiteSpace=wrap;connectable=0;overflow=hidden;fillColor=none;top=0;left=0;bottom=0;right=0;" vertex="1" parent="sJbd9mL3_aO5Ch2zx1B1-62">
          <mxGeometry x="300" width="60" height="40" as="geometry" />
        </mxCell>
        <mxCell id="sJbd9mL3_aO5Ch2zx1B1-69" value="" style="shape=partialRectangle;html=1;whiteSpace=wrap;connectable=0;overflow=hidden;fillColor=none;top=0;left=0;bottom=0;right=0;" vertex="1" parent="sJbd9mL3_aO5Ch2zx1B1-62">
          <mxGeometry x="360" width="60" height="40" as="geometry" />
        </mxCell>
        <mxCell id="sJbd9mL3_aO5Ch2zx1B1-70" value="" style="shape=partialRectangle;html=1;whiteSpace=wrap;connectable=0;overflow=hidden;fillColor=none;top=0;left=0;bottom=0;right=0;" vertex="1" parent="sJbd9mL3_aO5Ch2zx1B1-62">
          <mxGeometry x="420" width="60" height="40" as="geometry" />
        </mxCell>
        <mxCell id="sJbd9mL3_aO5Ch2zx1B1-71" value="" style="shape=partialRectangle;html=1;whiteSpace=wrap;connectable=0;overflow=hidden;fillColor=none;top=0;left=0;bottom=0;right=0;" vertex="1" parent="sJbd9mL3_aO5Ch2zx1B1-62">
          <mxGeometry x="480" width="60" height="40" as="geometry" />
        </mxCell>
        <mxCell id="sJbd9mL3_aO5Ch2zx1B1-72" value="" style="shape=partialRectangle;html=1;whiteSpace=wrap;connectable=0;overflow=hidden;fillColor=none;top=0;left=0;bottom=0;right=0;" vertex="1" parent="sJbd9mL3_aO5Ch2zx1B1-62">
          <mxGeometry x="540" width="60" height="40" as="geometry" />
        </mxCell>
        <mxCell id="sJbd9mL3_aO5Ch2zx1B1-74" style="rounded=0;orthogonalLoop=1;jettySize=auto;html=1;" edge="1" parent="1" source="sJbd9mL3_aO5Ch2zx1B1-73">
          <mxGeometry relative="1" as="geometry">
            <mxPoint x="120" y="730" as="targetPoint" />
          </mxGeometry>
        </mxCell>
        <mxCell id="sJbd9mL3_aO5Ch2zx1B1-73" value="" style="shape=curlyBracket;whiteSpace=wrap;html=1;rounded=1;direction=north;" vertex="1" parent="1">
          <mxGeometry x="160" y="690" width="60" height="20" as="geometry" />
        </mxCell>
        <mxCell id="sJbd9mL3_aO5Ch2zx1B1-75" value="4ms slice" style="text;html=1;align=center;verticalAlign=middle;resizable=0;points=[];autosize=1;" vertex="1" parent="1">
          <mxGeometry x="45" y="720" width="70" height="20" as="geometry" />
        </mxCell>
        <mxCell id="sJbd9mL3_aO5Ch2zx1B1-76" value="Each process gets 4/4 = 1ms of the processor time" style="text;html=1;align=center;verticalAlign=middle;resizable=0;points=[];autosize=1;" vertex="1" parent="1">
          <mxGeometry x="160" y="730" width="290" height="20" as="geometry" />
        </mxCell>
      </root>
    </mxGraphModel>
  </diagram>
</mxfile>
